<svg id="Layer_1" data-name="Layer 1" xmlns="http://www.w3.org/2000/svg" viewBox="0 0 539.32 150.88"><defs><style>.cls-1{fill:#212529;}</style></defs><title>Travel Log - logo</title><path class="cls-1" d="M189.94,15.32c-2.42-3.26-5.92-3.63-9.31-4.35-.24-.12-.6.12-.84.24-1.21,1.69-3.14,2.06-4.83,2.42A3.34,3.34,0,0,0,172.18,17,13.68,13.68,0,0,1,171,21.48c-2.54,6.77-6,13.05-8.82,19.69l-8,18.13c-1.69,3.74-3.26,7.61-4.95,11.35-.72,1.45-1.09,3-2.66,3.87-2.17,1.09.24,3-.72,4.23-1.81,2-2.3,4.59-3.14,7-2.3,5.55-4.11,11.35-6.29,16.91-1.57,4-1.93,8.46-4.47,12.08a2.11,2.11,0,0,0-.12.85l.12.41c-1.45-3.77-2.87-7.56-4.23-11.41s-2.65-8.09-3.86-12.08c-1.57-5.68-2.54-11.6-4.83-17a3.7,3.7,0,0,1,.84-4.59A88.94,88.94,0,0,0,126,63.65a11.81,11.81,0,0,0,2.9-5.08,116.49,116.49,0,0,0,2.9-13.29,24,24,0,0,0-2-14.5,3.79,3.79,0,0,0-2.9-2.65c-3.5-.73-7.13-1.7-10.63-.12-1.57.72-3.14,1.08-4.47,2.17A16.71,16.71,0,0,1,108.63,32c-1.09.49-1.82,1.69-3,1.69a2.29,2.29,0,0,1-.6-2.17c.1-3,.13-6,.19-9,1.29-.71,2.47-1.61,3.8-2.32a1.39,1.39,0,0,0,.12-1.21,1,1,0,0,0-.73-.84A14.67,14.67,0,0,0,106,18l-.86.08c-.46-2.92-2.23-4.74-5.42-5.64a11.11,11.11,0,0,0-2.78-.36c-2.18-.12-4.47,0-6.89,0,0,.6-.24,1.21,0,1.69,1,2.39.7,4.71.37,7.06l-.61.19c-5.44,1.69-10.76,3.38-16,5.31a166.56,166.56,0,0,0-17.76,7.86c-4.71,2.41-9.42,4.71-13.77,8a2,2,0,0,1-.73.48L30.94,48.06C25,51,19.58,54.83,13.18,56.76c-.12,0-.24.12-.36.24a1.63,1.63,0,0,0-.73,2.18,13.74,13.74,0,0,0,7.25,8.09c3.26,1.57,6.28,2.06,9.54.61a42,42,0,0,0,6.53-3.39c2.29-1.69,4.83-3,7.25-4.47.48-.36,1.09-.72,1.57-.24A1.5,1.5,0,0,1,44.47,61c-.6,2.17-.48,4.59-1,6.76a34.16,34.16,0,0,0-1,7.74c-.12,4.83-.73,9.66-1,14.5-.48,6.28-1.21,12.56-1,18.84.25,4.84.73,9.55,2.42,14,.36,1.09.85,2.05,1.33,3.14a3.24,3.24,0,0,0,3.38,1.45,2.55,2.55,0,0,0,2.18-2.3c.24-1.81.6-3.62.72-5.55a11.58,11.58,0,0,1,1.81-6.89,4,4,0,0,0,.73-2.9,27.39,27.39,0,0,1,1.09-7.61c1.57-6.16,2.29-12.45,3.26-18.61.6-4.35,1-8.58,1.93-12.8A88.2,88.2,0,0,0,61,48.91l-.12-.85c-.24-1,.24-1.57,1.09-2.17,1.81-1.21,4.11-2.06,4.83-4.59.12-.37.85-.73,1.33-1,4.11-2.42,7.73-5.44,12.32-6.89a6.48,6.48,0,0,0,2.9-1.81c1.33-2.05,3.39-2.54,5.44-3.14a4.84,4.84,0,0,1,.65-.19c-.14,1-.28,2-.41,3-1,8.82-2,17.76-2.9,26.58s-1.93,17.76-2.41,26.7c-.49,8.58-.73,17.28-.37,25.85.13,2.66.13,5.2.25,7.74a2.62,2.62,0,0,0,1.2,2.29c1.57,1.09,3,2.06,4.84.36a1.3,1.3,0,0,1,.84-.36c2.42,1.09,2.78-1,3.14-2.41a35.7,35.7,0,0,0,1.94-8.82c.36-4.35.24-8.82,2-12.93a15,15,0,0,0,.24-2.3l1.82-17.64c.12-1.08-.13-3,1.08-3.14,1.45-.24,1.45,1.57,1.81,2.66.49,1.57,1.21,3.14,1.58,4.71a124.87,124.87,0,0,0,5.92,19.94c2.9,7.37,5.92,14.62,9.3,21.74a136.84,136.84,0,0,0,7.49,12.93,67.68,67.68,0,0,0,14.26,15.1c4.71,3.87,10.14,6.65,14.74,10.64a6.08,6.08,0,0,0,2,.84c1.33.36,3.14-.84,2.78-2.17s-.12-3-1.57-4.11a21.76,21.76,0,0,0-4.59-3.5,25.31,25.31,0,0,1-4.11-2.78c-6.4-5.08-10.27-11.84-13.65-19a9.56,9.56,0,0,1-.49-1.81,22.31,22.31,0,0,0-1.69-5.56c-.66-1.65-1.29-3.3-1.93-4.95a19.28,19.28,0,0,0,3.26,4.34,2,2,0,0,0,1.93.73c3-.36,5.56-1.45,7-4.35a14,14,0,0,0,1.57-3c2.42-6,4.71-12.08,7-18,1.45-3.63,2.78-7.25,4.23-10.88.72-1.81.84-1.81,2.9-1.45,1.21.25,2.29.37,3.38.61,3.75.72,7.37,1.45,11.12.36.72-.24,1.33.36,1.33,1.21-.13,5.31-1.09,10.63-1,16a44.08,44.08,0,0,1-.36,6.88c-.61,3.51-.12,6.89.36,10.27a12.73,12.73,0,0,0,5.44,8.94c.72.49,1.45.85,2.17-.12a7.59,7.59,0,0,0,.85-1c2.29-2.42,4.1-5,3.62-8.7-.12-1.21-.24-3,.73-4,1.32-1.33,1.32-2.78,1.45-4.35a15.21,15.21,0,0,1,.6-3.38,30.36,30.36,0,0,0,1.21-8.1c.12-2.17.48-4.23.72-6.4,1.21-8.82,2.66-17.64,2.9-26.58,0-1,.24-2.06.24-3,.61-6.53,1.21-13.17,1.33-22,.12-2.54-.6-7.25-1-12C195.37,24.5,193.2,19.79,189.94,15.32ZM116.36,63.65a5.34,5.34,0,0,1-3.38,4.1c-1.09.49-1.94.73-2.3-.84-.12-.85-1-1.09-1.81-1.09a19.54,19.54,0,0,0-7.25,1.09,8.79,8.79,0,0,1,.24-4.71c.6-1.33.85-2.9,1.57-4.23a147.43,147.43,0,0,1,8.34-15.47c2-3.26,5.31-5,8-7.25a1.22,1.22,0,0,1,1.81.73,6.27,6.27,0,0,1,.24,1.33c.37,8.21-.72,16.07-4.34,23.44A25.57,25.57,0,0,0,116.36,63.65ZM178.7,46.37c-.48,7.85-.85,15.83-.72,23.68,0,1.21-.13,2.54-.25,3.87a2.27,2.27,0,0,1-2.41,2,5.43,5.43,0,0,1-3.39-.12c-2.53-1.57-5.55-2.3-8.21-3.38a6.35,6.35,0,0,1,.72-3.51l3.63-8.7a31.43,31.43,0,0,0,2.05-6.52,19.92,19.92,0,0,1,2.06-5.68c1.57-3.74,3.38-7.61,5.07-11.36.12-.36.48-.72,1-.36a.8.8,0,0,1,.48.61C178.7,40.09,178.94,43.23,178.7,46.37Z" transform="translate(-11.93 -10.94)"/><path class="cls-1" d="M250.35,39.72a19.7,19.7,0,0,0,1.08-2.29h.12c-.48-.48-.72-1.09-.12-1.57.25-1.69,1.21-3.14,1.09-5-.12-.6.36-.84,1-.84s1,.12,1.33-.24a1.56,1.56,0,0,0,.48-1.69c-.85-2.42.24-4.11,1.93-5.44s2.18-3.26,3.27-5.08a19.28,19.28,0,0,0-3.27,2.9,127.85,127.85,0,0,0-9.18,10.39c-.24.37-.48.85-1.09.85-.24,0-.24-.36,0-.48a2,2,0,0,0-2.05,1.57,3.8,3.8,0,0,0-2.9,1.81c-1.93,3.26-4.35,6.28-6,9.67a21,21,0,0,1-2.06,3.5,60.19,60.19,0,0,0-4.47,7.61c-2.05,4-4.22,7.85-6.16,11.84-.84,1.69-2.29,2.54-4.11,3.63.25-2.3-.36-4.23,0-6.17,1.21-6.4,1.09-12.92,1.21-19.45a27.73,27.73,0,0,0-.72-7.73,15.58,15.58,0,0,0-7.25-10.15c-1-.6-2.06-.84-3-1.33-2.06-1-2.42-.84-2.78,1.45a19.1,19.1,0,0,0-.6,3.63c-.13,2.65-.13,5.43-.13,8.09-.12,6.53,0,13-.36,19.57-.24,5.92-.24,11.84-.36,17.76-.24,6.65.6,13.17.72,19.82,0,5.32.37,10.51-1.81,15.71a6.41,6.41,0,0,0,1.45,6.52,27.07,27.07,0,0,0,4.35,3.87c1.33,1.08,2.66,1.08,4.35.12a7.86,7.86,0,0,0,4.11-5.32,42.1,42.1,0,0,1,2.54-6.52c.6-1.45,1.2-2.9,1.69-4.47,2.66-7,5.19-14.14,8-21s5.56-13.89,8.22-20.9c1.93-4.83,4.23-9.42,6.16-14.25A56.58,56.58,0,0,1,250.35,39.72Zm-6-4.59c-.13-.12-.37-.36-.25-.48a14.51,14.51,0,0,1,1-1.81c1,1,.85,1.69-.36,2.29Z" transform="translate(-11.93 -10.94)"/><path class="cls-1" d="M334.08,115.24a39.16,39.16,0,0,1-20.42-1.09c-2.3-.73-2.78-1.21-2.66-3.63a52.49,52.49,0,0,1,.84-6c1.21-7.37,2.54-14.74,3.75-22.11L317.76,71c1-5.08,1.82-10.15,2.78-15.23a76.25,76.25,0,0,0,2.06-9.18c.48-3.86,1.45-7.61,1.57-11.6a13.33,13.33,0,0,0-8.51-12.18c.45-1.1.32-2.38,1.14-3.4.48-.73-.49-1.94-1.33-1.94a12.26,12.26,0,0,0-3,.61c-1.93.48-3.75,1.09-5.56,1.69-3.38,1.09-6.76,1.93-9.91,3.26-8.33,3.63-16.91,6.41-25,10.39-.48.24-1,.36-1.45.61a1.81,1.81,0,0,1-2.17-.12c-2.18-2.06-4.59-1.45-7.13-.73a9.67,9.67,0,0,1-1.81.36A2.13,2.13,0,0,0,257.35,35c-1,2.66-2.17,5.32-2.89,8-.49,2-1.09,4-1.7,5.92-2,6.76-4.1,13.65-5.67,20.54a9.68,9.68,0,0,0-.37,2.65,12.57,12.57,0,0,1-1.45,7,12.68,12.68,0,0,0-1,3l-1.09,6.41a73.44,73.44,0,0,0-1.45,11.59v2.3a17.54,17.54,0,0,0,5.07,12.44,14.31,14.31,0,0,0,9.31,4.35,5.41,5.41,0,0,0,1.93-.12c2.66-.84,5.32-1.57,7.73-3.26,5.56-3.87,11.12-7.49,16.68-11.24a5.24,5.24,0,0,0,1.2-1c.73-1.81,2.18-2.9,3.51-4.11,1-1,2.17-2,2.29-3.38.12-1.94,1.21-3.63.49-5.56-.49-1.45-.73-2-2.3-1.93a19.52,19.52,0,0,0-6.28,1.81A104.86,104.86,0,0,0,260,102.79c-1,.73-1.93,1.33-2.9,1.94-.6.36-1.45,0-1.45-.61a8.14,8.14,0,0,1,.12-2.41c1-4.72,1.45-9.55,2.9-14.26.49-2.18.61-2.3,2.42-1.69a9.88,9.88,0,0,0,4.95,0,25.92,25.92,0,0,0,7.74-3.27c.72-.48,1.45-.84,1.69-1.57A3.51,3.51,0,0,1,278,78.15c2.05-.85,2.53-3.15,4.1-4.35a.78.78,0,0,0,0-.73c-.36-.72,0-1.45.12-2.29S282,69.33,281,69.2a30.09,30.09,0,0,0-7.37.73l-9.31,2.54a1,1,0,0,1-1.21-1.09l2.06-7.13c1.21-3.87,2.66-7.73,3.74-11.72.73-2.41,1.45-4.35,4.47-4.35a8.16,8.16,0,0,0,2.18-.84c6.52-2.42,12.56-5.8,18.85-8.94,2.05-1.09,4.23-2.3,6.52-3.27a17.78,17.78,0,0,0,3.92-1.84c-1.11,5.89-2.16,11.8-3.19,17.79-1.45,9.06-3.27,18-4.6,27.07s-2.77,17.88-4,26.82a8.51,8.51,0,0,0,.84,4.59,50.54,50.54,0,0,0,5.56,9.18c3.5,4.35,8.46,5.92,13.77,5.8a25.48,25.48,0,0,0,6.65-1.21c2.17-.72,4.35-1.45,6.52-2a56.81,56.81,0,0,0,6-2.9,8,8,0,0,0,3.39-3.26c-.24,0-.36-.12-.61-.12S334.44,115.12,334.08,115.24Z" transform="translate(-11.93 -10.94)"/><path class="cls-1" d="M492,64.49c.37-7.49-.6-14.62-5.67-20.17a6.77,6.77,0,0,1-1-1.57,8.39,8.39,0,0,0-5.68-4.84c-1.57-.48-2.3-1.33-2.17-3.38.12-3.5-3.39-7-6.29-6.4a6.62,6.62,0,0,1-3.74-.37,3.88,3.88,0,0,0-3.26.12,6.43,6.43,0,0,1-2.54.61c-2.06-.12-3.51,1.21-4.83,2.78a49.88,49.88,0,0,0-7,11,177.46,177.46,0,0,0-12.33,28.52,62.16,62.16,0,0,0-3,20.66c.07,1.29.17,2.57.31,3.84-.75.16-1.5.32-2.24.5a201.06,201.06,0,0,0-22.11,7.37l-10,3.63a7.36,7.36,0,0,1-5.07-.24,3.14,3.14,0,0,1-2.3-3.26,30.5,30.5,0,0,1,2.06-10.88c1.45-4.35,3.14-8.7,5-12.8,3.63-8.1,7.49-16.19,11.24-24.17,1.57-3.26,3.26-6.4,4.59-9.78s2.54-7,4.23-10.27a8.11,8.11,0,0,0-2.78-9.67,1.32,1.32,0,0,0-.73-.24c-2.41.24-4.83-.24-7.25.12-3.62.36-5.55,1.93-5.92,5.56a10.1,10.1,0,0,1-1.33,4.1c-5.67,11.6-10.87,23.44-15.82,35.28C383,78.27,379.86,86,379,94.33c-.73,7.5.84,14.26,6.4,19.82,2.54,2.42,5.32,4.35,9.06,4.11a19.77,19.77,0,0,1,2.66.24c3.87.6,7.73-.48,11.6-.48a7.79,7.79,0,0,0,2.05-.61c5.8-1.45,10.88-4.23,15.83-7.49a50.44,50.44,0,0,0,8-6.4,6,6,0,0,1,1.33-1.27c.29,1.31.6,2.62,1,3.93,1.33,4.71,4.11,8.09,7.13,11.47a3.52,3.52,0,0,0,1.09.85c3.14,2,6.4,3.26,10.14,2,4.23-1.21,8.34-2.29,11.72-5.8,3-3.14,6.29-6,9.43-9.18,1.33-1.21,2.9-2,4-3.74,2.06-2.9,4.23-5.8,6.05-8.82,2.05-3.63,4.1-7.49,4.47-11.6.48-5.32,2.29-10.51,1.08-15.47ZM482.8,60a53,53,0,0,1-6.16,22.11,82.21,82.21,0,0,1-18.36,23.08,24.7,24.7,0,0,1-3.63,2.54c-1.45.84-2.42.6-3.5-.73a6.23,6.23,0,0,1-1.82-3.26,32.46,32.46,0,0,1-.72-6.77A50.26,50.26,0,0,1,452,79c1.21-3,2.06-6,3.26-9.06.61-1.57,1.58-1.93,2.54-.85a14.72,14.72,0,0,0,5.8,3.87c-.6-3.5,1.45-5.32,2.42-7.61,1.69-4.23,4-8.22,5.92-12.45,1.45-3,3.74-4.83,6-6.76,1-.73,1.81-.48,2.66.72a14.89,14.89,0,0,1,1.57,4A39,39,0,0,1,482.8,60Z" transform="translate(-11.93 -10.94)"/><path class="cls-1" d="M550.94,76.33c-1.45-.84-1.69-2.29-2.17-3.62a4,4,0,0,0-2.9-2.42,30.48,30.48,0,0,0-8.1-.84,3.08,3.08,0,0,0-2,.48c-3.26,2.54-6,5.44-5.32,10.15.12.48,0,1.09.61,1.45s1.08-.12,1.57-.49c1.69-1.44,3.26-3,5.07-4.59a4.05,4.05,0,0,1,2.54-1.33c.48-.12,1.09.13,1,.61-.49,2,.12,4.35-.73,6.28a53.19,53.19,0,0,1-15.58,21.51,26,26,0,0,1-5.68,3,4.18,4.18,0,0,1-3.39-.12,10.93,10.93,0,0,1-4.22-4.23l-2.18-5.08a12.49,12.49,0,0,1-.72-4.71c-.12-6.64,1.45-13.05,3.62-19.33a97.6,97.6,0,0,1,5.44-12.2,160.31,160.31,0,0,1,13.53-22.35c1.69-2.3,3.74-4.35,5.68-6.53,1-1.09,2.05-.72,2.53.85a12.8,12.8,0,0,1,.25,6.76,4.75,4.75,0,0,0,1,3.63,4.58,4.58,0,0,0,7.37,0c2.06-2.66,2.3-5.8,1.57-9.06-.36-1.57-1.33-3.27-1.2-5,.24-2.53-1.09-4.47-2.18-6.4-1.45-2.42-3.38-4.59-6.89-4.11a21,21,0,0,1-4.71-.24v.24a43,43,0,0,1-5.56-.12,4,4,0,0,0-3.14,1.09A41.86,41.86,0,0,0,518.68,27c-3,4.23-6.28,8.46-8.94,13.05-6.16,10.51-11.23,21.38-13.65,33.34a53.05,53.05,0,0,0,1,26.46c1.08,3.87,3.5,6.89,5.55,10.15,2.66,1.45,4.6,3.75,7.37,5.2,7.74,3.74,15.23,3,22.72-.61a13.46,13.46,0,0,0,4.59-3.14c2.42-2.66,4.71-5.44,7-8.21a13.52,13.52,0,0,0,2.17-4.11,11.64,11.64,0,0,1,1-2.9c1.45-2.06,1.81-4.47,2.41-6.89a88.83,88.83,0,0,0,1.33-11.48C551.18,77.3,551.43,76.57,550.94,76.33Z" transform="translate(-11.93 -10.94)"/></svg>