<?xml version="1.0" standalone="no"?>
<!DOCTYPE svg PUBLIC "-//W3C//DTD SVG 20010904//EN"
 "http://www.w3.org/TR/2001/REC-SVG-20010904/DTD/svg10.dtd">
<svg version="1.0" xmlns="http://www.w3.org/2000/svg"
 width="1000.000000pt" height="1000.000000pt" viewBox="0 0 1000.000000 1000.000000"
 preserveAspectRatio="xMidYMid meet">
<metadata>
Created by potrace 1.11, written by Peter Selinger 2001-2013
</metadata>
<g transform="translate(0.000000,1000.000000) scale(0.100000,-0.100000)"
fill="#000000" stroke="none">
<path d="M5162 8275 c-32 -27 -101 -55 -134 -55 -37 0 -75 -51 -83 -111 -9
-68 -53 -181 -170 -434 -88 -188 -388 -865 -486 -1094 -31 -73 -56 -116 -83
-142 -36 -35 -38 -41 -33 -81 5 -35 2 -49 -18 -78 -14 -20 -40 -78 -59 -130
-18 -52 -75 -207 -125 -345 -51 -137 -106 -297 -122 -355 -30 -103 -72 -200
-87 -200 -9 0 -130 332 -183 505 -22 72 -60 210 -84 307 -25 97 -61 221 -80
275 -19 54 -35 108 -35 120 0 12 20 45 45 75 127 149 219 266 235 298 24 48
64 207 96 380 34 187 30 282 -17 424 -42 129 -62 148 -171 169 -118 24 -185
22 -265 -8 -66 -25 -165 -79 -251 -136 -23 -16 -47 -29 -52 -29 -18 0 -22 46
-15 182 l7 139 54 34 c52 34 59 43 54 75 -3 23 -20 30 -71 30 -43 0 -47 2 -52
29 -9 43 -60 95 -114 119 -56 24 -197 38 -279 27 l-56 -7 6 -36 c12 -64 17
-197 9 -207 -4 -6 -109 -43 -233 -84 -124 -40 -279 -95 -345 -121 -259 -103
-618 -284 -785 -395 -52 -35 -165 -98 -250 -140 -85 -43 -224 -116 -309 -163
-84 -47 -204 -106 -265 -131 -107 -45 -111 -48 -114 -79 -8 -81 96 -211 217
-270 70 -34 83 -37 161 -37 77 0 92 4 160 36 41 19 118 63 170 96 164 104 222
135 232 125 11 -11 -4 -149 -28 -266 -8 -38 -19 -144 -24 -235 -5 -91 -18
-276 -29 -411 -30 -380 -34 -466 -22 -598 14 -155 34 -255 72 -354 46 -119
112 -159 174 -105 31 26 41 68 54 226 8 83 15 116 39 165 24 47 32 80 37 146
3 47 20 142 36 213 31 132 72 385 109 660 11 86 27 190 36 230 34 163 46 279
50 497 3 166 7 226 16 231 59 34 126 91 142 120 19 35 61 64 261 185 39 23 99
52 135 65 45 16 77 36 105 66 40 42 113 82 149 83 16 0 17 -5 12 -42 -25 -176
-138 -1266 -158 -1533 -14 -184 -17 -1003 -4 -1068 6 -31 16 -44 54 -68 54
-34 76 -36 116 -10 19 13 39 18 60 14 22 -3 36 0 45 10 23 29 72 222 82 327
22 231 29 288 48 350 12 42 29 168 46 350 32 340 34 355 60 355 23 0 60 -98
105 -285 51 -211 106 -380 199 -612 345 -862 555 -1156 1081 -1513 80 -54 166
-116 192 -137 55 -46 104 -63 141 -49 40 15 49 41 36 103 -9 44 -20 62 -63
103 -28 28 -92 74 -141 104 -110 67 -247 201 -327 321 -89 135 -165 286 -184
369 -9 40 -29 105 -45 144 -16 38 -29 72 -29 75 0 2 17 -15 38 -38 33 -38 43
-43 77 -42 102 4 185 62 238 169 13 26 100 244 192 483 92 239 173 441 180
448 10 11 38 9 161 -13 146 -26 279 -30 326 -11 29 13 36 -21 27 -129 -5 -55
-14 -197 -19 -315 -6 -118 -13 -267 -16 -330 -7 -139 13 -278 50 -355 32 -64
125 -155 159 -155 18 0 39 17 76 63 78 94 91 128 91 233 0 81 3 93 29 131 21
31 31 60 36 110 4 38 16 101 26 141 10 41 23 129 29 197 5 68 21 203 34 302
44 310 55 414 66 583 6 91 18 239 26 330 27 307 29 540 5 772 -23 229 -46 312
-117 430 -74 121 -128 166 -229 191 -116 29 -111 29 -143 2z m-1712 -710 c33
-39 18 -321 -25 -491 -13 -50 -46 -146 -74 -212 -28 -66 -51 -127 -51 -135 0
-35 -83 -107 -124 -107 -8 0 -21 12 -28 27 -8 16 -25 30 -43 35 -27 7 -140 -3
-201 -18 -23 -6 -24 -4 -24 43 0 69 35 165 124 339 93 184 178 328 220 373 33
35 194 161 206 161 4 0 13 -7 20 -15z m1686 -250 c-4 -115 -10 -359 -15 -542
-9 -383 -7 -376 -90 -388 -44 -6 -60 -3 -118 24 -38 17 -97 41 -133 54 -55 20
-65 28 -68 49 -2 15 30 107 77 221 45 107 90 234 102 283 12 54 53 161 101
269 45 99 90 199 100 223 17 37 22 41 35 30 14 -11 15 -39 9 -223z"/>
<path d="M9115 8100 c-22 -5 -112 -31 -200 -59 -88 -28 -164 -51 -168 -51 -16
0 -693 -273 -809 -326 -65 -30 -122 -54 -127 -54 -6 0 -27 11 -47 25 -44 30
-97 32 -205 9 -49 -10 -81 -23 -94 -38 -27 -29 -89 -209 -179 -521 -120 -413
-137 -482 -146 -596 -6 -82 -16 -125 -39 -184 -50 -124 -111 -496 -111 -675 0
-216 99 -394 264 -476 128 -63 237 -60 378 12 84 43 597 394 609 417 6 12 44
56 83 97 70 72 73 78 86 147 24 134 -3 200 -79 188 -79 -13 -179 -51 -324
-124 -171 -86 -280 -152 -446 -270 -126 -90 -151 -98 -151 -51 0 84 86 500
108 522 4 4 23 3 42 -2 58 -17 127 -11 210 16 106 35 201 91 219 129 19 42 49
72 76 79 13 3 45 34 72 68 44 57 48 67 50 125 2 54 -1 64 -18 74 -34 18 -200
-6 -369 -52 -113 -31 -154 -39 -163 -30 -8 8 1 49 36 164 126 408 148 473 170
494 12 13 47 29 78 37 86 23 290 115 547 247 220 114 372 184 372 173 0 -3
-16 -92 -35 -197 -143 -796 -305 -1814 -305 -1921 0 -63 48 -169 136 -301 116
-175 245 -245 448 -245 173 1 548 133 643 227 44 45 44 68 1 59 -181 -36 -386
-33 -542 8 -54 14 -110 33 -124 42 -24 16 -24 19 -19 103 8 135 245 1468 296
1666 39 153 84 464 79 550 -7 134 -83 258 -193 316 -50 27 -52 34 -28 103 18
48 18 48 -6 67 -13 10 -26 19 -30 18 -3 -1 -24 -5 -46 -9z"/>
<path d="M7404 7967 c-71 -74 -154 -166 -184 -204 -45 -58 -59 -70 -77 -66
-15 3 -30 -3 -45 -19 -13 -13 -35 -29 -50 -35 -28 -13 -144 -181 -223 -323
-23 -41 -66 -113 -96 -160 -30 -47 -109 -191 -177 -321 -111 -213 -128 -240
-169 -269 l-46 -33 6 124 c4 68 11 162 16 209 6 47 11 193 12 325 1 191 -2
254 -15 308 -37 155 -124 267 -260 331 -98 47 -116 45 -134 -14 -28 -87 -47
-1497 -28 -2000 10 -253 2 -349 -35 -457 -21 -61 -25 -137 -9 -178 13 -33 91
-116 151 -160 60 -45 108 -47 167 -7 55 36 88 83 107 150 9 30 34 95 55 146
21 50 86 217 143 371 58 154 155 406 217 560 62 154 130 327 152 385 42 112
205 493 267 625 21 44 61 120 89 168 28 49 49 94 46 101 -3 7 6 55 20 107 21
83 27 94 47 97 43 7 52 22 45 74 -8 59 11 106 58 142 18 13 47 51 64 84 58
109 41 100 -114 -61z m-304 -362 c-20 -24 -31 -18 -18 10 8 17 15 22 21 16 7
-7 6 -15 -3 -26z"/>
<path d="M9089 4720 l-115 -5 -50 -42 c-91 -76 -187 -187 -295 -338 -130 -183
-196 -293 -298 -495 -285 -563 -364 -1029 -251 -1464 26 -100 56 -163 121
-262 46 -69 70 -94 161 -162 60 -45 133 -90 165 -102 200 -75 407 -62 619 40
93 45 131 80 265 240 97 115 125 161 149 235 7 22 25 65 40 95 43 86 71 223
89 435 10 108 9 110 -14 135 -13 14 -35 51 -48 82 -29 64 -51 82 -124 97 -75
15 -207 25 -238 17 -35 -9 -130 -99 -162 -153 -45 -77 -41 -213 6 -213 18 0
47 23 186 152 17 15 45 31 63 34 l33 7 -7 -89 c-5 -68 -14 -107 -40 -168 -110
-256 -342 -534 -523 -624 -102 -51 -133 -53 -197 -9 -56 37 -95 96 -143 219
l-33 83 4 150 c6 161 23 257 79 431 84 263 278 641 493 959 128 189 261 340
289 329 31 -11 49 -104 41 -204 -6 -86 -5 -92 19 -129 58 -87 169 -89 234 -3
18 23 37 59 43 80 15 54 12 142 -6 198 -8 27 -19 85 -24 129 -14 123 -102 274
-177 303 -34 13 -198 19 -354 12z"/>
<path d="M5476 4509 c-81 -19 -116 -62 -134 -164 -7 -39 -40 -121 -95 -235
-150 -311 -434 -962 -517 -1185 -43 -117 -84 -268 -101 -378 -16 -107 -7 -294
20 -377 45 -143 170 -299 284 -354 121 -60 479 -57 677 5 216 68 467 217 626
371 l61 60 18 -71 c30 -122 86 -224 193 -348 57 -66 161 -120 248 -129 48 -5
77 0 163 26 168 50 206 74 383 243 87 84 187 177 223 207 134 114 355 467 385
615 25 126 53 337 53 405 2 154 -12 387 -26 455 -22 101 -52 174 -97 236 -21
30 -58 85 -80 122 -44 72 -97 118 -158 138 -54 17 -72 37 -72 78 0 57 -18 109
-52 147 -44 50 -63 58 -158 66 -47 4 -102 10 -122 14 -25 4 -52 1 -78 -10 -22
-9 -54 -16 -71 -16 -44 0 -80 -22 -137 -85 -81 -88 -144 -192 -266 -435 -143
-287 -253 -553 -317 -770 -51 -171 -84 -417 -77 -586 l3 -87 -55 -14 c-110
-28 -358 -107 -500 -160 -478 -179 -500 -185 -571 -162 -65 22 -79 44 -79 125
0 205 111 489 530 1364 68 140 144 312 170 381 26 69 60 149 75 179 54 107 43
220 -30 297 l-42 43 -119 -1 c-65 -1 -136 -5 -158 -10z m2147 -660 c39 -78 50
-167 44 -349 -10 -296 -96 -545 -287 -834 -187 -284 -481 -576 -579 -576 -30
0 -88 75 -103 133 -8 33 -13 110 -13 212 1 129 5 180 24 265 28 129 165 520
187 537 14 10 25 5 65 -30 27 -23 73 -55 101 -70 l53 -28 5 53 c4 40 27 96 89
223 46 94 106 217 134 275 42 89 61 116 125 178 94 92 114 94 155 11z"/>
</g>
</svg>
